<svg width="42" height="42" viewBox="0 0 42 42" fill="none" xmlns="http://www.w3.org/2000/svg">
<path d="M20.8498 41.9852C9.29683 41.9462 -0.0388998 32.5177 -9.51739e-07 20.9462C0.0388979 9.37481 9.45242 -0.0148038 21.0443 0.0241572C29.4075 0.0631183 36.9539 5.08909 40.2214 12.8034C44.7337 23.4787 39.7157 35.8294 29.0186 40.3099C26.4512 41.4397 23.6505 41.9852 20.8498 41.9852ZM19.2938 17.6735C19.1771 17.6735 19.0604 17.6735 18.9437 17.6735C17.1544 17.7125 15.5595 18.219 14.2759 19.154C11.2807 21.2969 10.5805 25.4657 12.7199 28.4657C13.07 28.9333 13.459 29.4008 13.9258 29.7514C14.5482 30.3358 15.2873 30.7644 16.0652 31.1151C16.8821 31.4657 17.7768 31.6605 18.6715 31.6995C18.7882 31.6995 18.9048 31.6995 19.0215 31.6995C20.5775 31.6995 22.0946 31.232 23.3782 30.3358L23.7283 30.1021V26.4787C22.2502 27.6475 20.7331 28.2709 19.3327 28.2709C19.2549 28.2709 19.1771 28.2709 19.0604 28.2709C17.8157 28.232 16.6487 27.6475 15.8707 26.6735C15.0928 25.6995 14.8983 24.4138 15.3262 23.2449C15.8707 21.8813 17.3489 20.9073 19.0993 20.7125C19.2938 20.6735 19.5272 20.6735 19.7606 20.6735C21.1221 20.6735 22.4835 21.0631 23.6894 21.4917V18.4138C22.289 17.9462 20.8109 17.7125 19.2938 17.6735ZM20.7331 12.141C20.8498 12.141 20.9665 12.141 21.0832 12.141C22.289 12.18 23.4171 12.7255 24.234 13.6216C25.0509 14.5177 25.5177 15.6865 25.5177 16.8943V28.5436C25.5177 29.9852 26.6846 31.1151 28.1239 31.1151H31.5081V27.8034H29.1741V17.167C29.213 12.6865 25.6344 9.06312 21.1999 8.94624C21.0832 8.94624 20.9665 8.94624 20.8498 8.94624C18.3214 8.94624 16.0652 9.76442 14.5871 11.206C13.2645 12.4917 12.5254 14.2449 12.5254 16.232H16.143C16.143 15.141 16.4931 14.1281 17.0766 13.5436C18.0491 12.5696 19.1771 12.141 20.7331 12.141Z" fill="#010202"/>
</svg>
